<?xml version="1.0" encoding="UTF-8"?>
<svg version="1.1" xmlns="http://www.w3.org/2000/svg" width="100" height="100">
<path d="M0 0 C4.12494151 -0.05784708 8.24977944 -0.09354407 12.375 -0.125 C13.550625 -0.14175781 14.72625 -0.15851562 15.9375 -0.17578125 C17.61972656 -0.18544922 17.61972656 -0.18544922 19.3359375 -0.1953125 C20.37282715 -0.20578613 21.4097168 -0.21625977 22.47802734 -0.22705078 C25 0 25 0 27 2 C27.26069641 4.55389404 27.26069641 4.55389404 27.2746582 7.82324219 C27.28895622 9.6558963 27.28895622 9.6558963 27.30354309 11.52557373 C27.30328158 12.86600778 27.30234413 14.20644184 27.30078125 15.546875 C27.30466821 16.9196994 27.30900288 18.2925226 27.31376648 19.66534424 C27.32123665 22.54711802 27.32093298 25.42876934 27.31567383 28.31054688 C27.3098964 31.99371015 27.32676376 35.67636773 27.3500185 39.35944748 C27.36479729 42.1974376 27.36562163 45.03530737 27.36250877 47.87332916 C27.36326865 49.88845536 27.37711884 51.90356293 27.39118958 53.91864014 C27.38496078 55.15301819 27.37873199 56.38739624 27.37231445 57.65917969 C27.37294388 58.74124695 27.3735733 59.82331421 27.3742218 60.93817139 C26.74714002 66.06886377 24.59892436 69.97735641 20.625 73.25 C20.06039062 73.72953125 19.49578125 74.2090625 18.9140625 74.703125 C11.92443043 79.43895734 3.11362385 78.77927461 -5 78 C-11.74268208 76.48448465 -16.25914741 72.75824096 -20 67 C-21.02766017 63.91701949 -21.16598738 61.66869574 -21.1875 58.4375 C-21.20167969 57.46683594 -21.21585938 56.49617188 -21.23046875 55.49609375 C-21 53 -21 53 -19 51 C-16.90625 50.734375 -16.90625 50.734375 -14.5 50.75 C-13.7059375 50.74484375 -12.911875 50.7396875 -12.09375 50.734375 C-10 51 -10 51 -8 53 C-7.18818331 55.27818714 -6.53972293 57.58017529 -5.87890625 59.90625 C-5.08230283 62.34415648 -5.08230283 62.34415648 -2 64 C2.53769025 64.65148808 6.63234649 64.86729247 10.5625 62.375 C13.79431286 57.0354831 13.20209101 50.29873756 13.31640625 44.2265625 C13.33718735 43.3028183 13.35796844 42.3790741 13.37937927 41.42733765 C13.44446119 38.49329656 13.50356643 35.55917038 13.5625 32.625 C13.6057246 30.62889765 13.64934012 28.63280373 13.69335938 26.63671875 C13.8000999 21.75789844 13.90148248 16.87899301 14 12 C9.38 12 4.76 12 0 12 C-1.12256131 9.75487738 -1.13413762 8.48543351 -1.125 6 C-1.12886719 4.948125 -1.12886719 4.948125 -1.1328125 3.875 C-1 2 -1 2 0 0 Z " fill="#F1B158" transform="translate(47,11)"/>
<path d="M0 0 C4.12494151 -0.05784708 8.24977944 -0.09354407 12.375 -0.125 C13.550625 -0.14175781 14.72625 -0.15851562 15.9375 -0.17578125 C17.61972656 -0.18544922 17.61972656 -0.18544922 19.3359375 -0.1953125 C20.37282715 -0.20578613 21.4097168 -0.21625977 22.47802734 -0.22705078 C25 0 25 0 27 2 C27.26069641 4.55389404 27.26069641 4.55389404 27.2746582 7.82324219 C27.28895622 9.6558963 27.28895622 9.6558963 27.30354309 11.52557373 C27.30328158 12.86600778 27.30234413 14.20644184 27.30078125 15.546875 C27.30466821 16.9196994 27.30900288 18.2925226 27.31376648 19.66534424 C27.32123665 22.54711802 27.32093298 25.42876934 27.31567383 28.31054688 C27.3098964 31.99371015 27.32676376 35.67636773 27.3500185 39.35944748 C27.36479729 42.1974376 27.36562163 45.03530737 27.36250877 47.87332916 C27.36326865 49.88845536 27.37711884 51.90356293 27.39118958 53.91864014 C27.38496078 55.15301819 27.37873199 56.38739624 27.37231445 57.65917969 C27.37294388 58.74124695 27.3735733 59.82331421 27.3742218 60.93817139 C26.74714002 66.06886377 24.59892436 69.97735641 20.625 73.25 C20.06039062 73.72953125 19.49578125 74.2090625 18.9140625 74.703125 C11.92443043 79.43895734 3.11362385 78.77927461 -5 78 C-11.74268208 76.48448465 -16.25914741 72.75824096 -20 67 C-21.02766017 63.91701949 -21.16598738 61.66869574 -21.1875 58.4375 C-21.20167969 57.46683594 -21.21585938 56.49617188 -21.23046875 55.49609375 C-21 53 -21 53 -19 51 C-16.90625 50.734375 -16.90625 50.734375 -14.5 50.75 C-13.7059375 50.74484375 -12.911875 50.7396875 -12.09375 50.734375 C-10 51 -10 51 -8 53 C-7.18818331 55.27818714 -6.53972293 57.58017529 -5.87890625 59.90625 C-5.08230283 62.34415648 -5.08230283 62.34415648 -2 64 C2.53769025 64.65148808 6.63234649 64.86729247 10.5625 62.375 C13.79431286 57.0354831 13.20209101 50.29873756 13.31640625 44.2265625 C13.33718735 43.3028183 13.35796844 42.3790741 13.37937927 41.42733765 C13.44446119 38.49329656 13.50356643 35.55917038 13.5625 32.625 C13.6057246 30.62889765 13.64934012 28.63280373 13.69335938 26.63671875 C13.8000999 21.75789844 13.90148248 16.87899301 14 12 C9.38 12 4.76 12 0 12 C-1.12256131 9.75487738 -1.13413762 8.48543351 -1.125 6 C-1.12886719 4.948125 -1.12886719 4.948125 -1.1328125 3.875 C-1 2 -1 2 0 0 Z M1 3 C1.28730055 5.33944736 1.61936779 7.6739143 2 10 C6.62 10 11.24 10 16 10 C15.93113118 17.02956587 15.84316633 24.05853651 15.73754883 31.08764648 C15.70430833 33.47852983 15.67627371 35.86949148 15.65356445 38.26049805 C15.62000317 41.69874419 15.56768476 45.13627329 15.51171875 48.57421875 C15.50213387 50.17604256 15.50213387 50.17604256 15.49235535 51.81022644 C15.30760564 61.14993295 15.30760564 61.14993295 12 65 C7.94404492 67.43357305 3.61240059 67.53359144 -1 67 C-4.3125 66.125 -4.3125 66.125 -7 64 C-8.3897254 60.74332274 -9.26051321 57.45742507 -10 54 C-14.61507774 52.95785309 -14.61507774 52.95785309 -19 54 C-19.28948647 59.59673839 -19.23291136 63.2027767 -16 68 C-11.59060782 72.55092823 -7.43183949 75.61769664 -0.984375 76.3359375 C7.07863015 76.43331679 13.69256769 75.92495418 19.84765625 70.31640625 C24.298001 65.42418329 25.12786329 61.81711267 25.11352539 55.22167969 C25.11344986 54.0607782 25.11337433 52.89987671 25.11329651 51.70379639 C25.10813522 50.45576233 25.10297394 49.20772827 25.09765625 47.921875 C25.0962413 46.64016418 25.09482635 45.35845337 25.09336853 44.03790283 C25.08955901 40.6381636 25.07974214 37.2384674 25.06866455 33.83874512 C25.05841674 30.366461 25.0538637 26.8941699 25.04882812 23.421875 C25.03811841 16.61456571 25.02106084 9.80728492 25 3 C22.56283785 1.78141893 20.96725943 1.87074425 18.24609375 1.8671875 C17.30958984 1.86589844 16.37308594 1.86460938 15.40820312 1.86328125 C13.93770508 1.86908203 13.93770508 1.86908203 12.4375 1.875 C11.45330078 1.87113281 10.46910156 1.86726562 9.45507812 1.86328125 C8.05225586 1.86521484 8.05225586 1.86521484 6.62109375 1.8671875 C5.7592749 1.86831543 4.89745605 1.86944336 4.00952148 1.87060547 C2.00209968 1.77783085 2.00209968 1.77783085 1 3 Z " fill="#050402" transform="translate(47,11)"/>
</svg>
